<?xml version="1.0" encoding="UTF-8"?>
<svg width="78px" height="75px" viewBox="0 0 78 75" version="1.1" xmlns="http://www.w3.org/2000/svg" xmlns:xlink="http://www.w3.org/1999/xlink">
    <!-- Generator: Sketch 63.1 (92452) - https://sketch.com -->
    <title>chat copy</title>
    <desc>Created with Sketch.</desc>
    <g id="Youngsters-App" stroke="none" stroke-width="1" fill="none" fill-rule="evenodd">
        <g id="1.-Register-Copy-5" transform="translate(-63.000000, -9.000000)" fill-rule="nonzero">
            <g id="chat-copy" transform="translate(63.000000, 9.000000)">
                <path d="M0.727467868,31.4970524 C0.980074143,33.8006349 2.84691106,35.6001652 5.16001905,35.7620617 C5.35138744,35.7755276 5.54153108,35.7889935 5.73152161,35.8012352 C7.14198319,35.8968735 8.23844752,37.0676394 8.23844752,38.481097 L8.23844752,43.8236822 C8.23844752,45.6209172 10.2964997,46.6408041 11.7267105,45.5522106 C14.3366692,43.5649232 17.8090103,40.609317 19.9394763,37.5444537 C20.4436172,36.8186737 21.2762993,36.3957229 22.1607275,36.4006196 C28.7200704,36.4336722 35.2795664,36.2228088 41.8389094,35.7619087 C43.6676257,35.634442 45.2204653,34.4857112 45.9121473,32.8699594 C46.0961671,32.4457844 46.218796,31.9873326 46.2714605,31.5079169 C47.2428465,22.6383441 47.2428465,13.7675471 46.2714605,4.89675007 C46.0188543,2.59561596 44.1507926,0.804654824 41.8413589,0.642758302 C32.0697827,-0.0424710199 22.2992782,-0.179884135 12.5289268,0.230824998 C10.0734407,0.332584154 7.61672989,0.469844248 5.16124381,0.642758302 C2.85058533,0.804807845 0.9812989,2.59592201 0.728692626,4.8969031 C-0.242693319,13.7640276 -0.242693319,22.6299279 0.727467868,31.4970524 Z" id="Path" fill="#9DC6FB"></path>
                <path d="M77.2261637,59.2358349 C76.9574439,61.7395968 74.9715279,63.695749 72.5106688,63.8716992 C72.307056,63.8864401 72.1048252,63.9010242 71.9025944,63.9143538 C70.4020631,64.0183244 69.2355121,65.2909053 69.2355121,66.8272548 L69.2355121,72.6343954 C69.2355121,74.5878816 67.0461368,75.6965874 65.5247221,74.5132361 C62.7481557,72.35322 59.0542568,69.1404824 56.7877973,65.80919 C56.2515862,65.0202369 55.3655786,64.5606023 54.4247523,64.5659341 C47.4466368,64.6018455 40.4686749,64.3727339 33.4905595,63.8716992 C31.5451818,63.7330718 29.8932461,62.484484 29.1574145,60.7282752 C28.961633,60.2672293 28.8312655,59.7688605 28.7750646,59.24791 C27.7416451,49.607031 27.7416451,39.9648975 28.7750646,30.3226072 C29.0437844,27.8215112 31.0310824,25.8746113 33.4879491,25.6986611 C43.8832589,24.9537739 54.2771867,24.8044829 64.6712681,25.2509447 C67.283378,25.3615017 69.8970234,25.5107927 72.5091333,25.6986611 C74.9673819,25.8744545 76.9559084,27.8213544 77.2246281,30.3226072 C78.2582012,39.9608202 78.2582012,49.5977787 77.2261637,59.2358349 Z" id="Path" fill="#FFC250"></path>
                <g id="Group" transform="translate(43.000000, 39.000000)" fill="#454045">
                    <path d="M4.41059155,3.72391071 C4.41059155,1.71199107 3.45035915,0.0752857143 2.27007042,0.0752857143 C1.0896338,0.0752857143 0.129401408,1.71214286 0.129401408,3.72391071 C0.129401408,5.73567857 1.0896338,7.37253571 2.27007042,7.37253571 C3.45035915,7.37253571 4.41059155,5.73583036 4.41059155,3.72391071 Z" id="Path"></path>
                    <path d="M18.7865704,0.0752857143 C17.6061338,0.0752857143 16.6459014,1.71214286 16.6459014,3.72391071 C16.6459014,5.73567857 17.6061338,7.37253571 18.7865704,7.37253571 C19.9668592,7.37253571 20.9270915,5.73567857 20.9270915,3.72391071 C20.9270915,1.71214286 19.9668592,0.0752857143 18.7865704,0.0752857143 Z" id="Path"></path>
                    <path d="M17.961507,9.87715179 C17.3794225,9.62579464 16.7097887,9.90538393 16.4645915,10.5022054 C15.4552606,12.9596161 13.125,14.5474464 10.5282465,14.5474464 C7.93164085,14.5474464 5.60138028,12.9596161 4.59190141,10.5022054 C4.34655634,9.90538393 3.67633099,9.62564286 3.09498592,9.87730357 C2.51349296,10.1289643 2.24078873,10.8167054 2.48598592,11.4135268 C3.85364789,14.7421875 7.01030282,16.8929911 10.5280986,16.8929911 C14.0461901,16.8929911 17.202993,14.7421875 18.5702113,11.4135268 C18.8155563,10.8165536 18.5428521,10.1286607 17.961507,9.87715179 L17.961507,9.87715179 Z" id="Path"></path>
                </g>
                <g id="Group" transform="translate(7.000000, 8.000000)" fill="#F9F6F9">
                    <path d="M27.6993802,2.59353271 L1.31572396,2.59353271 C0.671229167,2.59353271 0.148776042,2.04397196 0.148776042,1.36603738 C0.148776042,0.688102804 0.671229167,0.138542056 1.31572396,0.138542056 L27.6993802,0.138542056 C28.343875,0.138542056 28.8663281,0.688102804 28.8663281,1.36603738 C28.8663281,2.04397196 28.343875,2.59353271 27.6993802,2.59353271 Z" id="Path"></path>
                    <path d="M27.6993802,9.78183178 L1.31572396,9.78183178 C0.671229167,9.78183178 0.148776042,9.23227103 0.148776042,8.55433645 C0.148776042,7.87640187 0.671229167,7.32684112 1.31572396,7.32684112 L27.6993802,7.32684112 C28.343875,7.32684112 28.8663281,7.87640187 28.8663281,8.55433645 C28.8663281,9.23227103 28.343875,9.78183178 27.6993802,9.78183178 Z" id="Path"></path>
                    <path d="M10.7296979,16.969972 L1.31572396,16.969972 C0.671229167,16.969972 0.148776042,16.4204112 0.148776042,15.7424766 C0.148776042,15.0645421 0.671229167,14.5149813 1.31572396,14.5149813 L10.7296979,14.5149813 C11.3741927,14.5149813 11.8966458,15.0645421 11.8966458,15.7424766 C11.8966458,16.4204112 11.3741927,16.969972 10.7296979,16.969972 Z" id="Path"></path>
                </g>
            </g>
        </g>
    </g>
</svg>