<?xml version="1.0" encoding="UTF-8"?>
<svg width="113px" height="113px" viewBox="0 0 113 113" version="1.1" xmlns="http://www.w3.org/2000/svg" xmlns:xlink="http://www.w3.org/1999/xlink">
    <!-- Generator: Sketch 63.1 (92452) - https://sketch.com -->
    <title>chat (1)</title>
    <desc>Created with Sketch.</desc>
    <g id="Youngsters-App" stroke="none" stroke-width="1" fill="none" fill-rule="evenodd">
        <g id="1.-Register-Copy-5" transform="translate(-635.000000, -678.000000)" fill-rule="nonzero">
            <g id="chat-(1)" transform="translate(635.000000, 678.000000)">
                <path d="M98,62.5951921 C98,76.4475931 95.6646111,89.0031246 86.6115042,98.1396968 C81.7394573,103.055572 75.865068,106.98207 69.3185955,109.59043 C63.4891304,111.913231 57.12658,110.6651 50.4642388,110.6651 C43.8036768,110.6651 37.4420161,111.91301 31.6127733,109.590652 C28.5581531,108.373535 25.6496477,106.86953 22.9210612,105.111866 C8.93163474,96.1026768 6,80.4257083 6,62.5954136 C6,46.4755954 7.23919502,32.1178716 19.0264483,22.8539164 C27.6754602,16.0563173 38.5940315,12 50.4642388,12 C66.0002127,12 79.9064628,18.9473572 89.2222203,29.8929893 C96.7285574,38.7140948 98,50.1269456 98,62.5951921 Z" id="Path" fill="#CBE2FF"></path>
                <path d="M61,111.928684 C57.620816,112.631839 54.1204617,113 50.5323479,113 C40.3658398,113 30.8940569,110.038348 22.9467045,104.936274 C8.93570922,95.9440747 6,80.2966701 6,62.5 C6,46.4105808 7.24066012,32.079933 19.0458641,22.8334479 C27.708211,16.0486678 38.6436165,12 50.5321251,12 C54.1180115,12 57.6185886,12.3681612 60.9975499,13.071316 C53.1827275,14.6938788 46.0265465,18.0975458 39.978941,22.8334479 C28.173737,32.079933 20.5950187,46.4105808 20.5950187,62.5 C20.5950187,80.2966701 29.8690088,95.9442958 43.8797813,104.936274 C49.0237319,108.237343 54.8040498,110.643105 61,111.928684 Z" id="Path" fill="#BED8FB"></path>
                <path d="M48,74.2903035 C48,87.0405539 28.9002805,87.0405539 25.6180789,98.3082993 C24.7834136,101.174814 23.8882879,103.350318 22.9122519,105 C8.93010849,96.0190623 6,80.3912547 6,62.6168733 C6,46.5476047 7.23854988,32.2349047 19.0196666,23 C30.5673882,24.2104291 39.9434242,27.4402275 39.9434242,34.2633286 C39.9434242,43.4558318 17.2607568,44.0487897 17.2607568,51.4604318 C17.2607568,58.8720739 48,61.5422614 48,74.2903035 L48,74.2903035 Z" id="Path" fill="#80CB8E"></path>
                <path d="M101,62.5841013 C101,76.386382 95.4410936,88.8964855 86.4411173,98 C82.8550114,92.5860554 75.191755,85.6993732 75.191755,77.0726442 C75.191755,65.8125578 91.221118,62.5529778 91.221118,57.2169524 C91.221118,51.8831343 73.707567,50.6980131 72.2236001,44.771524 C70.7396332,38.8428276 76.6755008,33.2127844 89.0362907,30 C96.499017,38.78941 101,50.1609671 101,62.5841013 L101,62.5841013 Z" id="Path" fill="#80CB8E"></path>
                <path d="M69.9993276,109.500323 L70,109.498816 C64.1250723,107.240842 57.7140431,106 51,106 C44.2859569,106 37.8749277,107.240842 32,109.498816 L32.0020171,109.500969 C37.8764966,111.758297 45.8570569,109.610347 51,113 C57.7135948,113 64.1248481,111.757651 69.9993276,109.500323 L69.9993276,109.500323 Z" id="Path" fill="#F9F6F9"></path>
                <path d="M21.1974337,62.6167666 C21.1974337,73.5658091 24.7602626,83.6990674 30.813869,91.9666666 C28.7444238,93.6719956 27.0983409,95.6847343 26.32447,98.3083173 C25.4775199,101.174825 24.5692196,103.350323 23.5788181,105 C9.39110822,96.0190865 0,80.391321 0,62.6167666 C0,46.5475413 7.67442735,32.2348798 19.6289409,23 C26.2150769,23.6799674 32.1047065,24.9994883 36,27.2352757 C30.81838,32.3865971 26.7593354,38.625778 24.2139742,45.571427 C20.6055837,47.1451352 17.8439176,48.8926447 17.8439176,51.460576 C17.8439176,53.0811023 19.3350459,54.4763714 21.6663576,55.7961132 C21.3568994,58.027263 21.1974337,60.3030225 21.1974337,62.6167666 Z" id="Path" fill="#6EC17D"></path>
                <path d="M61,111.92294 C60.9911968,111.925164 60.9799728,111.927387 60.9711697,111.929611 C60.9667681,111.931834 60.9623665,111.934058 60.9577449,111.934058 C57.6323546,112.632012 54.1870214,113 50.657178,113 C44.066479,113 37.7711257,111.718601 32.0022008,109.386602 L32,109.384378 C36.3538184,107.624929 41.0054033,106.462487 45.8612214,106 C50.4841961,108.751795 55.5821008,110.778508 61,111.92294 L61,111.92294 Z" id="Path" fill="#E2DFE2"></path>
                <path d="M51.9595643,41.7676924 C52.2928162,44.8224106 54.7553863,47.2087703 57.8068414,47.4234093 C58.0591575,47.441407 58.3099257,47.4591825 58.5606939,47.4754026 C60.4213319,47.6022752 61.8677822,49.1547422 61.8677822,51.0291678 L61.8677822,58.1140342 C61.8677822,60.4972832 64.5826684,61.8497759 66.4691793,60.4061838 C69.9122662,57.7709673 74.4926553,53.8514714 77.3030723,49.7871053 C77.9680281,48.8245624 79.0666315,48.2637457 80.2331237,48.2704115 C88.8859527,48.3144058 97.5387817,48.034664 106.191611,47.4234093 C108.603983,47.25432 110.652365,45.7311826 111.564772,43.5883471 C111.807358,43.025975 111.96923,42.417831 112.038888,41.782135 C113.320371,30.0203145 113.320371,18.2567165 112.038888,6.4933407 C111.705636,3.44195541 109.241518,1.06670538 106.194928,0.852288514 C93.3046915,-0.056483483 80.4162243,-0.238460076 67.527536,0.306136541 C64.2883364,0.441008082 61.0475889,0.623206869 57.8086105,0.852288514 C54.7604724,1.06692757 52.2945853,3.44195541 51.9613334,6.4933407 C50.6798505,18.2520504 50.6798505,30.0092048 51.9595643,41.7676924 Z" id="Path" fill="#FFC250"></path>
                <g id="Group" transform="translate(67.000000, 13.000000)" fill="#544F57">
                    <path d="M27.6502535,0.0439285714 C25.9079225,0.0439285714 24.4902183,2.35478571 24.4902183,5.19492857 C24.4902183,8.03528571 25.9077042,10.3461429 27.6502535,10.3461429 C29.3925845,10.3461429 30.8100704,8.03528571 30.8100704,5.19492857 C30.8102887,2.35457143 29.3928028,0.0439285714 27.6502535,0.0439285714 Z" id="Path"></path>
                    <path d="M6.42878873,5.19492857 C6.42878873,2.35457143 5.01130282,0.0439285714 3.26875352,0.0439285714 C1.52642254,0.0439285714 0.10893662,2.35478571 0.10893662,5.19492857 C0.10893662,8.03528571 1.52642254,10.3461429 3.26875352,10.3461429 C5.01108451,10.3461429 6.42878873,8.03528571 6.42878873,5.19492857 Z" id="Path"></path>
                    <path d="M26.4320845,13.8818571 C25.5734718,13.5267857 24.5845282,13.9219286 24.2225704,14.7642857 C22.7326056,18.2335714 19.2929155,20.475 15.4596127,20.475 C11.6263099,20.475 8.18661972,18.2333571 6.69643662,14.7642857 C6.33447887,13.9217143 5.34553521,13.5267857 4.48692254,13.8818571 C3.62852817,14.2371429 3.22596479,15.2080714 3.58792254,16.0506429 C5.60641549,20.7499286 10.2664577,23.7863571 15.4596127,23.7863571 C20.6529859,23.7863571 25.3128099,20.7499286 27.3313028,16.0506429 C27.6930423,15.2080714 27.2906972,14.2371429 26.4320845,13.8818571 Z" id="Path"></path>
                </g>
            </g>
        </g>
    </g>
</svg>