<?xml version="1.0" encoding="UTF-8"?>
<svg width="137px" height="136px" viewBox="0 0 137 136" version="1.1" xmlns="http://www.w3.org/2000/svg" xmlns:xlink="http://www.w3.org/1999/xlink">
    <!-- Generator: Sketch 63.1 (92452) - https://sketch.com -->
    <title>011-comment</title>
    <desc>Created with Sketch.</desc>
    <g id="Youngsters-App" stroke="none" stroke-width="1" fill="none" fill-rule="evenodd">
        <g id="1.-Register-Copy-5" transform="translate(-163.000000, -304.000000)" fill-rule="nonzero">
            <g id="011-comment" transform="translate(163.000000, 304.000000)">
                <path d="M119.285602,23 L20.7143977,23 C14.8063612,23 10,27.7826435 10,33.6615265 L10,108.291171 C10,114.170054 14.8063612,118.952698 20.7143977,118.952698 L33.571466,118.952698 L33.571466,133.87946 C33.571466,135.626364 35.6733335,136.642441 37.0533053,135.54412 L57.894122,118.952698 L119.285602,118.952698 C125.193639,118.952698 130,114.170054 130,108.291171 L130,33.6615265 C130,27.7826435 125.193639,23 119.285602,23 L119.285602,23 Z" id="Path" fill="#8D81CA"></path>
                <path d="M109.285602,12 L10.7143978,12 C4.80636092,12 0,16.7826875 0,22.6605837 L0,97.2919571 C0,103.169853 4.80636092,107.952541 10.7143978,107.952541 L23.5714658,107.952541 L23.5714658,122.87944 C23.5714658,124.62636 25.6733335,125.642447 27.0533051,124.544116 L47.8951683,107.952541 L109.285602,107.952541 C115.193639,107.952541 120,103.169853 120,97.2919571 L120,22.6605837 C120,16.7826875 115.193639,12 109.285602,12 L109.285602,12 Z" id="Path" fill="#F4F5F7"></path>
                <path d="M118.039486,99.3944784 L19.3159332,99.3944784 C13.3987654,99.3944784 8.58497562,94.6041116 8.58497562,88.7157349 L8.58497562,13.9655728 C8.58497562,13.2940455 8.649942,12.6371168 8.77044372,12 C3.78690385,12.9197005 0,17.2752431 0,22.4962634 L0,97.247468 C0,103.134802 4.81378948,107.925169 10.7309576,107.925169 L23.6078971,107.925169 L23.6078971,122.876035 C23.6078971,124.62576 25.7130134,125.643479 27.0951178,124.543384 L47.9691935,107.925169 L109.454511,107.925169 C114.696868,107.925169 119.069516,104.165033 120,99.2119981 C119.363959,99.3298281 118.709058,99.3944784 118.039486,99.3944784 Z" id="Path" fill="#EAEBEF"></path>
                <g id="Group" transform="translate(26.000000, 53.000000)" fill="#AAA0D7">
                    <path d="M34.3710025,0.213521569 C29.6327062,0.213521569 25.7785141,3.96802885 25.7785141,8.58377391 C25.7785141,13.1984977 29.6327062,16.9530047 34.3710025,16.9530047 C39.1082501,16.9530047 42.9634911,13.1984977 42.9634911,8.58377391 C42.9634911,3.96802885 39.1082501,0.213521569 34.3710025,0.213521569 Z" id="Path"></path>
                    <path d="M60.1474192,0.213521569 C55.4101713,0.213521569 51.5549308,3.96802885 51.5549308,8.58377391 C51.5549308,13.1984977 55.4101713,16.9530047 60.1474192,16.9530047 C64.8857155,16.9530047 68.7399076,13.1984977 68.7399076,8.58377391 C68.7399076,3.96802885 64.8857155,0.213521569 60.1474192,0.213521569 L60.1474192,0.213521569 Z" id="Path"></path>
                    <path d="M8.59458604,0.213521569 C3.85628945,0.213521569 0.00209738521,3.96802885 0.00209738521,8.58377391 C0.00209738521,13.1984977 3.85628945,16.9530047 8.59458604,16.9530047 C13.3318337,16.9530047 17.1870744,13.1984977 17.1870744,8.58377391 C17.1870744,3.96802885 13.3318337,0.213521569 8.59458604,0.213521569 Z" id="Path"></path>
                </g>
                <path d="M129.936375,2.06333731 C127.195869,0.253098835 123.932025,-0.383741177 120.496508,0.223117797 C117.260756,0.794826378 113.904313,2.44275342 110.5,5.12968048 C107.094666,2.44275342 103.739263,0.794826378 100.50351,0.223117797 C97.0679943,-0.383741177 93.80415,0.253098835 91.0626038,2.06333731 C85.0155959,6.06012882 82.3687294,15.4225041 85.037445,23.3788689 C89.3708567,36.2986572 108.774968,45.4211836 109.598993,45.8026672 C110.164989,46.0652605 110.83503,46.0662942 111.401026,45.8026672 C112.225051,45.4211836 131.629163,36.2986572 135.962574,23.3788689 C138.63129,15.4225041 135.984423,6.06012882 129.936375,2.06333731 L129.936375,2.06333731 Z" id="Path" fill="#FB7A73"></path>
                <path d="M91.2636243,21.2439016 C88.5783943,13.3379669 91.2045851,4.04660532 97.2402902,0 C95.0505681,0.153131572 92.9884127,0.83394613 91.1571429,2.02795865 C85.0286619,6.02800376 82.3465949,15.3980005 85.0518558,23.3608422 C89.4428974,36.2911479 109.104009,45.4211005 109.940047,45.8028947 C110.51357,46.0657018 111.191467,46.0657018 111.766045,45.8028947 C111.994822,45.6983929 113.641594,44.9337696 116,43.6155966 C113.991613,42.6750788 95.5049592,33.7324022 91.2636243,21.2439016 L91.2636243,21.2439016 Z" id="Path" fill="#FB675F"></path>
                <path d="M112.666393,36 C111.50068,36 110.555535,35.0231549 110.555535,33.8183442 L110.555535,29.4550326 L102.111069,29.4550326 C101.2927,29.4550326 100.547509,28.9650123 100.199134,28.1980239 C99.851791,27.4321007 99.9651673,26.5266282 100.48979,25.8757535 L111.045114,12.7847535 C111.614056,12.0795502 112.549925,11.8174957 113.384786,12.1306828 C114.220678,12.4428044 114.777252,13.2630559 114.777252,14.1823768 L114.777252,25.091721 L116.88811,25.091721 C118.054855,25.091721 119,26.0685658 119,27.2733768 C119,28.4781875 118.054855,29.4550326 116.88811,29.4550326 L114.777252,29.4550326 L114.777252,33.8183442 C114.777252,35.0231549 113.832107,36 112.666393,36 Z M106.618289,25.091721 L110.555535,25.091721 L110.555535,20.2085617 L106.618289,25.091721 Z" id="Shape" fill="#F4F5F7"></path>
            </g>
        </g>
    </g>
</svg>