<?xml version="1.0" encoding="UTF-8"?>
<svg width="108px" height="136px" viewBox="0 0 108 136" version="1.1" xmlns="http://www.w3.org/2000/svg" xmlns:xlink="http://www.w3.org/1999/xlink">
    <!-- Generator: Sketch 63.1 (92452) - https://sketch.com -->
    <title>date</title>
    <desc>Created with Sketch.</desc>
    <g id="Youngsters-App" stroke="none" stroke-width="1" fill="none" fill-rule="evenodd">
        <g id="1.-Register-Copy-5" transform="translate(-177.000000, -673.000000)" fill-rule="nonzero">
            <g id="date" transform="translate(177.000000, 673.000000)">
                <g id="Group" transform="translate(20.000000, 0.000000)" fill="#425A6B">
                    <path d="M57.3332231,27.8681121 L57.3332231,27.8681121 C53.2076033,27.8681121 49.9071074,24.6525607 49.9071074,20.6331215 L49.9071074,7.23499065 C49.9071074,3.2155514 53.2076033,0 57.3332231,0 L57.3332231,0 C61.458843,0 64.7593388,3.2155514 64.7593388,7.23499065 L64.7593388,20.9010841 C64.4842975,24.6525607 61.1838017,27.8681121 57.3332231,27.8681121 Z" id="Path"></path>
                    <path d="M7.5507438,27.8681121 L7.5507438,27.8681121 C3.42512397,27.8681121 0.124628099,24.6525607 0.124628099,20.6331215 L0.124628099,7.23499065 C0.399669421,3.2155514 3.42512397,0 7.5507438,0 L7.5507438,0 C11.6763636,0 14.9768595,3.2155514 14.9768595,7.23499065 L14.9768595,20.9010841 C14.9768595,24.6525607 11.6763636,27.8681121 7.5507438,27.8681121 Z" id="Path"></path>
                </g>
                <circle id="Oval" fill="#FFD15C" cx="82.5" cy="110.5" r="25.5"></circle>
                <path d="M97.8227513,14 L83.3809524,14 L83.3809524,20.9306931 C83.3809524,25.0891089 80.1111111,28.4158416 76.0238095,28.4158416 C71.9365079,28.4158416 68.6666667,25.0891089 68.6666667,20.9306931 L68.6666667,14 L34.3333333,14 L34.3333333,20.9306931 C34.3333333,25.0891089 31.0634921,28.4158416 26.9761905,28.4158416 C22.8888889,28.4158416 19.6190476,25.0891089 19.6190476,20.9306931 L19.6190476,14 L5.44973545,14 C2.45238095,14 0,16.4950495 0,19.5445545 L0,42 L103,42 L103,19.2673267 C103,16.4950495 100.820106,14 97.8227513,14 Z" id="Path" fill="#8AD6F7"></path>
                <path d="M56.9497354,110.501805 C56.9497354,96.4223827 68.3941799,85.0505415 82.5634921,85.0505415 C91.010582,85.0505415 98.3677249,89.1119134 103,95.0685921 L103,42 L0,42 L0,111.584838 C0,114.563177 2.45238095,117 5.44973545,117 L58.0396825,117 C57.2222222,114.833935 56.9497354,112.66787 56.9497354,110.501805 Z" id="Path" fill="#F3F3F3"></path>
                <path d="M94.3076923,107.307692 L85.6923077,107.307692 L85.6923077,98.6923077 C85.6923077,97.3461538 84.6153846,96 83,96 C81.3846154,96 80.3076923,97.0769231 80.3076923,98.6923077 L80.3076923,107.307692 L71.6923077,107.307692 C70.3461538,107.307692 69,108.384615 69,110 C69,111.615385 70.0769231,112.692308 71.6923077,112.692308 L80.3076923,112.692308 L80.3076923,121.307692 C80.3076923,122.653846 81.3846154,124 83,124 C84.6153846,124 85.6923077,122.923077 85.6923077,121.307692 L85.6923077,112.692308 L94.3076923,112.692308 C95.6538462,112.692308 97,111.615385 97,110 C97,108.384615 95.6538462,107.307692 94.3076923,107.307692 Z" id="Path" fill="#FFFFFF"></path>
                <g id="Group" transform="translate(14.000000, 55.000000)" fill="#F26F5A">
                    <rect id="Rectangle" x="0.269234483" y="0.0205333333" width="16.0414897" height="16.1109333"></rect>
                    <rect id="Rectangle" x="30.5578483" y="0.178933333" width="16.0414897" height="16.1109333"></rect>
                    <rect id="Rectangle" x="60.8464621" y="0.0669333333" width="16.0414897" height="16.1109333"></rect>
                    <rect id="Rectangle" x="0.160637931" y="31.86" width="16.0414897" height="16.1109333"></rect>
                </g>
            </g>
        </g>
    </g>
</svg>