<?xml version="1.0" encoding="UTF-8"?>
<svg width="145px" height="145px" viewBox="0 0 145 145" version="1.1" xmlns="http://www.w3.org/2000/svg" xmlns:xlink="http://www.w3.org/1999/xlink">
    <!-- Generator: Sketch 63.1 (92452) - https://sketch.com -->
    <title>good</title>
    <desc>Created with Sketch.</desc>
    <g id="Youngsters-App" stroke="none" stroke-width="1" fill="none" fill-rule="evenodd">
        <g id="1.-Register-Copy-5" transform="translate(-1104.000000, -682.000000)" fill-rule="nonzero">
            <g id="good" transform="translate(1104.000000, 682.000000)">
                <polygon id="Path" fill="#EFEDEE" points="53 123.535884 72 120 91 123.535884 91 132.276142 72 138 53 132.276142"></polygon>
                <polygon id="Path" fill="#D4D2D3" points="82.3216653 132.276142 82.3216653 123.535884 68 120.822077 72.3391674 120 91 123.535884 91 132.276142 72.3391674 138 68 136.669018"></polygon>
                <polygon id="Path" fill="#58B78C" points="54 133 90 133 90 145 54 145"></polygon>
                <polygon id="Path" fill="#46926F" points="82 133 91 133 91 145 82 145"></polygon>
                <path d="M54.5671554,123 L54.5671554,118.120832 L46.2854163,115.591968 C43.8189365,114.837935 42.4437807,112.272499 43.213868,109.860882 C43.9839553,107.449265 46.6077528,106.104697 49.0753326,106.857655 L54.5671554,108.5346 L54.5671554,97.5758335 C54.5671554,95.0491215 56.662893,93 59.2459859,93 C61.8301789,93 63.9259164,95.0491215 63.9259164,97.5758335 C63.9259164,95.0491215 66.020554,93 68.6047472,93 C71.1889402,93 73.2835777,95.0491215 73.2835777,97.5758335 C73.2835777,95.0491215 75.3793153,93 77.9635082,93 C80.5477015,93 82.642339,95.0491215 82.642339,97.5758335 C82.642339,95.0491215 84.7369765,93 87.3211695,93 C89.9053625,93 92,95.0491215 92,97.5758335 L92,123 L54.5671554,123 Z" id="Path" fill="#C1F1A4"></path>
                <path d="M82,95.9022196 C82.6819346,94.2037004 84.3637471,93 86.3371909,93 C88.912535,93 91,95.0481193 91,97.5749219 L91,123 L82.3267144,123 L82.3267144,97.5749219 C82.3256182,96.9843666 82.2083081,96.4207035 82,95.9022196 L82,95.9022196 Z" id="Path" fill="#9CE6A0"></path>
                <polygon id="Path" fill="#EFEDEE" points="21.4641155 53 25 72 21.4641155 91 12.7238581 91 7 72 12.7238581 53"></polygon>
                <polygon id="Path" fill="#D4D2D3" points="12.7238581 82.3216653 21.4641155 82.3216653 24.1779228 68 25 72.3391674 21.4641155 91 12.7238581 91 7 72.3391674 8.33098206 68"></polygon>
                <polygon id="Path" fill="#FD6F71" points="0 53 12 53 12 91 0 91"></polygon>
                <polygon id="Path" fill="#E34B4C" points="0 82 12 82 12 91 0 91"></polygon>
                <path d="M22,54.5675407 L26.8791681,54.5675407 L29.4080316,46.2858868 C30.1620655,43.8183323 32.7275011,42.4431907 35.139118,43.2143701 C37.5507352,43.9844495 38.895303,46.60822 38.1423449,49.0746741 L36.4653997,54.5675407 L47.4241665,54.5675407 C49.9508785,54.5675407 52,56.6621567 52,59.246323 C52,61.8304894 49.9508785,63.9262057 47.4241665,63.9262057 C49.9508785,63.9262057 52,66.0208216 52,68.604988 C52,71.1891544 49.9508785,73.2837703 47.4241665,73.2837703 C49.9508785,73.2837703 52,75.3783863 52,77.9625527 C52,80.546719 49.9508785,82.6424353 47.4241665,82.6424353 C49.9508785,82.6424353 52,84.7370513 52,87.3212177 C52,89.905384 49.9508785,92 47.4241665,92 L22,92 L22,54.5675407 Z" id="Path" fill="#C1F1A4"></path>
                <path d="M49.0977804,82 C50.7962996,82.680838 52,84.3637471 52,86.3371909 C52,88.912535 49.9518807,91 47.4250781,91 L22,91 L22,82.3256182 L47.4250781,82.3256182 C48.0156334,82.3256182 48.5792965,82.2083078 49.0977804,82 L49.0977804,82 Z" id="Path" fill="#9CE6A0"></path>
                <polygon id="Path" fill="#EFEDEE" points="91 21.4641155 90.9988833 21.4641155 72.0000001 25 53 21.4641155 53 12.7238581 72.0000001 7 91 12.7238581"></polygon>
                <polygon id="Path" fill="#D4D2D3" points="62.6783346 12.7238581 62.6783346 21.4641155 77 24.1779228 72.6608327 25 54 21.4641155 54 12.7238581 72.6608327 7 77 8.33098206"></polygon>
                <polygon id="Path" fill="#FADC60" points="53 0 91 0 91 12 53 12"></polygon>
                <polygon id="Path" fill="#F2C42C" points="54 0 63 0 63 12 54 12"></polygon>
                <path d="M90.4328447,22 L90.4328447,26.8791681 L98.7145837,29.4080316 C101.181064,30.1620655 102.556219,32.7275011 101.786132,35.139118 C101.016045,37.5507352 98.3922473,38.895303 95.9246674,38.1423449 L90.4328447,36.4653997 L90.4328447,47.4241665 C90.4328447,49.9508785 88.3371071,52 85.7540142,52 C83.169821,52 81.0740834,49.9508785 81.0740834,47.4241665 C81.0740834,49.9508785 78.9794459,52 76.3952529,52 C73.81106,52 71.7164225,49.9508785 71.7164225,47.4241665 C71.7164225,49.9508785 69.6206849,52 67.0364917,52 C64.4522987,52 62.3576612,49.9508785 62.3576612,47.4241665 C62.3576612,49.9508785 60.2630237,52 57.6788307,52 C55.0946375,52 53,49.9508785 53,47.4241665 L53,22 L90.4328447,22 Z" id="Path" fill="#C1F1A4"></path>
                <path d="M63,49.0977804 C62.319162,50.7962996 60.6362529,52 58.6628092,52 C56.0874649,52 54,49.9518807 54,47.4250781 L54,22 L62.6743816,22 L62.6743816,47.4250781 C62.6743816,48.0156334 62.7916919,48.5792965 63,49.0977804 Z" id="Path" fill="#9CE6A0"></path>
                <polygon id="Path" fill="#EFEDEE" points="123.535884 91 120 72 123.535884 53 132.276142 53 138 72 132.276142 91"></polygon>
                <polygon id="Path" fill="#D4D2D3" points="132.276142 62.6783347 123.535884 62.6783347 120.822077 77 120 72.6608326 123.535884 54 132.276142 54 138 72.6608326 136.669018 77"></polygon>
                <polygon id="Path" fill="#6EE3FF" points="133 53 145 53 145 91 133 91"></polygon>
                <polygon id="Path" fill="#69E781" points="133 54 145 54 145 63 133 63"></polygon>
                <path d="M123,90.4324593 L118.120832,90.4324593 L115.591968,98.7141132 C114.837935,101.181668 112.272499,102.556809 109.860882,101.78563 C107.449265,101.01555 106.104697,98.39178 106.857655,95.9253259 L108.5346,90.4324593 L97.5758335,90.4324593 C95.0491215,90.4324593 93,88.3378433 93,85.753677 C93,83.1695106 95.0491215,81.0737943 97.5758335,81.0737943 C95.0491215,81.0737943 93,78.9791784 93,76.395012 C93,73.8108456 95.0491215,71.7162297 97.5758335,71.7162297 C95.0491215,71.7162297 93,69.6216137 93,67.0374473 C93,64.453281 95.0491215,62.3575647 97.5758335,62.3575647 C95.0491215,62.3575647 93,60.2629487 93,57.6787823 C93,55.094616 95.0491215,53 97.5758335,53 L123,53 L123,90.4324593 Z" id="Path" fill="#C1F1A4"></path>
                <path d="M95.9022196,63 C94.2037004,62.319162 93,60.6362529 93,58.6628091 C93,56.087465 95.0481193,54 97.5749219,54 L123,54 L123,62.6743818 L97.5749219,62.6743818 C96.9843666,62.6743818 96.4207035,62.7916922 95.9022196,63 L95.9022196,63 Z" id="Path" fill="#9CE6A0"></path>
            </g>
        </g>
    </g>
</svg>