<?xml version="1.0" encoding="UTF-8"?>
<svg width="104px" height="105px" viewBox="0 0 104 105" version="1.1" xmlns="http://www.w3.org/2000/svg" xmlns:xlink="http://www.w3.org/1999/xlink">
    <!-- Generator: Sketch 63.1 (92452) - https://sketch.com -->
    <title>jigsaw</title>
    <desc>Created with Sketch.</desc>
    <g id="Youngsters-App" stroke="none" stroke-width="1" fill="none" fill-rule="evenodd">
        <g id="1.-Register-Copy-6" transform="translate(-763.000000, -379.000000)" fill-rule="nonzero">
            <g id="jigsaw" transform="translate(763.000000, 379.000000)">
                <path d="M104,103 L104,82.0034131 C104,79.7040722 102.875859,77.5492902 100.989344,76.2295802 L87.7204967,66.954861 C86.8310264,66.332973 85.7705354,66 84.683405,66 L74,66 L74.1765113,96.1462381 C74.2417879,99.2877572 76.2976967,102.03986 79.2941176,103 L104,103 L104,103 Z" id="Path" fill="#FEC9A3"></path>
                <path d="M93,103 L80.2727273,103 C76.2563012,103 73,99.8658101 73,96 L73,89 L85.7272727,89 L93,103 Z" id="Path" fill="#FABD91"></path>
                <path d="M46.9509921,12.5411849 C45.7068148,12.543043 44.4769959,12.8009026 43.3393613,13.2972153 L43.3393613,0 L10.8348924,0 C4.85039767,0 0,4.81220953 0,10.7495871 L0,42.9981419 L13.4027377,42.9981419 C11.3981952,38.4689793 13.4730725,33.1837862 18.04005,31.1952324 C22.6051546,29.2064721 27.9322892,31.2650134 29.9366236,35.7960342 C30.9533572,38.0909641 30.9533572,40.7050701 29.9366236,43 L43.3393613,43 L43.3393613,29.7027847 C47.904466,31.691545 53.2316005,29.6330036 55.2359349,25.1019829 C57.2402693,20.5709622 55.1656001,15.2876272 50.5986227,13.2990734 C49.4501674,12.7955349 48.2078629,12.5393269 46.9509921,12.5411849 Z" id="Path" fill="#88B337"></path>
                <path d="M86,10.6413953 C86,4.76377587 81.1877905,0 75.2506194,0 L43.0018581,0 L43.0018581,13.1633822 C47.5310207,11.1946383 52.8162138,13.232461 54.8047676,17.7178782 C56.7935279,22.201456 54.7349866,27.4334549 50.2039658,29.4019945 C47.9090359,30.4005705 45.2949299,30.4005705 43,29.4019945 L43,42.5653767 L56.2972153,42.5653767 C54.308455,47.0489545 56.3669964,52.2809534 60.8980171,54.249493 C65.4271798,56.2182369 70.7123728,54.1804142 72.7009266,49.6949971 C73.7096553,47.423165 73.7096553,44.8353693 72.7009266,42.5635373 L86,42.5635373 L86,10.6413953 L86,10.6413953 Z" id="Path" fill="#E8594A"></path>
                <path d="M86,12 C75.7588767,25.9906838 57.2706378,33.9378025 43,38.2150708 L43,42.6646707 L56.2977899,42.6646707 C54.3089436,47.1124459 56.367574,52.3026658 60.8987905,54.255486 C65.4281489,56.208509 70.7135703,54.1869589 72.7022101,49.737359 C73.7109823,47.4836682 73.7109823,44.9165368 72.7022101,42.662846 L86,42.662846 L86,12 L86,12 Z" id="Path" fill="#D65245"></path>
                <path d="M39.4166495,56.62226 C40.6510844,56.6240993 41.8712735,56.8793551 43,57.3706561 L43,42.4342075 L29.7022101,42.4342075 C31.6910564,37.9507796 29.632426,32.7189557 25.1012095,30.7504819 C20.5699929,28.7818038 15.2864297,30.8195583 13.2977899,35.3048255 C12.2890177,37.5765816 12.2890177,40.1642907 13.2977899,42.4360468 L0,42.4360468 L0,74.3589606 C0,80.2363834 4.81241748,85 10.7500516,85 L43,85 L43,73.6105645 C38.4706416,75.5792427 33.1852202,73.5414881 31.1965804,69.0562209 C29.2077342,64.5727931 31.2663645,59.3409691 35.797581,57.3724954 C36.9370436,56.8740415 38.1696204,56.6204207 39.4166495,56.62226 Z" id="Path" fill="#FDB62F"></path>
                <path d="M0,74.4658673 C0,80.2842418 4.81260083,85 10.7502065,85 L43,85 L43,73.7249902 C38.4921353,75.670248 33.2282112,73.6671281 31.2430908,69.2497844 C30.7826832,68.2244524 30.5264654,67.1202176 30.4905412,66 C20.8853663,70.197832 10.5152541,72.4574872 0,72.6452355 L0,74.4658673 L0,74.4658673 Z" id="Path" fill="#FFA719"></path>
                <path d="M90.3118214,79.9839415 L79.043174,50 L66.6668718,54.6430151 C70.1166713,58.1435746 70.0633102,63.7677359 66.549272,67.202463 C63.0352338,70.6373947 57.3894168,70.5858738 53.9414644,67.0853143 C52.1854715,65.3023229 51.2627337,62.8663244 51.401678,60.3718538 L39.0270177,65.0148689 L44.2988959,79.0469561 C43.0752833,78.9778527 41.8500288,79.1641049 40.701327,79.5934458 C36.1026204,81.3711215 33.8230723,86.5252568 35.6075929,91.1061197 C37.361944,95.6072479 42.4004697,97.8942037 46.9616183,96.2547348 C48.11032,95.8235539 49.1576356,95.1564399 50.0337849,94.2995982 L54.0520862,105 L84.0658966,93.7392061 C89.5976027,91.6528138 92.3920861,85.4997454 90.3118214,79.9839415 Z" id="Path" fill="#4398D1"></path>
                <path d="M85.4217558,64 C72.9811327,82.5457553 49.6595872,89.0222842 36,91.2523638 C37.916643,95.79722 43.1668942,97.9320413 47.7265307,96.0216983 C48.7705558,95.5849597 49.7225404,94.9525274 50.5301275,94.1616765 L54.5979815,105 L84.9819148,93.5940613 C90.5801744,91.4807766 93.4072487,85.2521264 91.3050706,79.6668839 L85.4217558,64 Z" id="Path" fill="#3E8FC9"></path>
                <path d="M46.9509921,12.8263626 C45.7068148,12.8282033 44.4769959,13.0836486 43.3393613,13.5753144 L43.3393613,11 C29.8175954,23.2337662 11.4976628,29.9904898 0,33.282851 L0,42.9981593 L13.4027377,42.9981593 C11.3981952,38.511402 13.4730725,33.2756928 18.04005,31.3057572 C22.6051546,29.3356171 27.9322892,31.374885 29.9366236,35.863483 C30.9533572,38.1369261 30.9533572,40.7265569 29.9366236,43 L43.3393613,43 L43.3393613,29.827283 C47.904466,31.797423 53.2316005,29.7581552 55.2359349,25.2695572 C57.2402693,20.7809592 55.1656001,15.5470907 50.5986227,13.5771551 C49.4501674,13.0783311 48.2078629,12.8245219 46.9509921,12.8263626 Z" id="Path" fill="#80A834"></path>
                <path d="M82.5831661,80.2984642 C80.8725794,78.5916879 78.0717898,78.5636782 76.3272179,80.2372056 C74.582646,81.9107331 74.5540161,84.6508446 76.2646028,86.3576209 C76.2860238,86.3785778 76.305797,86.3995347 76.3272179,86.4188795 L82.5510347,92.5078595 C82.5510347,98.3030402 87.3520058,103 93.2755173,103 L93.2755173,103 L104,103 L104,101.25131 L82.5831661,80.2984642 Z" id="Path" fill="#FEC9A3"></path>
            </g>
        </g>
    </g>
</svg>