<?xml version="1.0" encoding="UTF-8"?>
<svg width="88px" height="88px" viewBox="0 0 88 88" version="1.1" xmlns="http://www.w3.org/2000/svg" xmlns:xlink="http://www.w3.org/1999/xlink">
    <!-- Generator: Sketch 63.1 (92452) - https://sketch.com -->
    <title>man</title>
    <desc>Created with Sketch.</desc>
    <g id="Youngsters-App" stroke="none" stroke-width="1" fill="none" fill-rule="evenodd">
        <g id="1.-Register-Copy-5" transform="translate(-937.000000, -324.000000)" fill="#E2FFE2" fill-rule="nonzero">
            <g id="man" transform="translate(937.000000, 324.000000)">
                <path d="M0,43.7095353 C0,19.607216 19.7403077,0 43.9998349,0 C68.2606827,0 88,19.607216 88,43.7095353 C88,55.1089575 83.6468262,65.8145046 75.7102976,74 L56.8190354,67.4727872 L56.8190354,60.4628788 C61.0949632,58.1117049 63.7906496,53.6300462 63.7906496,48.7034024 L63.7906496,23.1762782 C63.7906496,15.7597511 57.718918,9.7293345 50.2537878,9.7293345 L37.7478627,9.7293345 C30.2827326,9.7293345 24.2110009,15.7597511 24.2110009,23.1762782 L24.2110009,48.7070095 C24.2110009,53.6336533 26.908668,58.115312 31.1855862,60.4664859 L31.1855862,67.3032535 L12.1659108,73.8760469 C4.3095991,65.7062916 0,55.0437018 0,43.7095353 Z" id="Path"></path>
                <path d="M43.5736015,88 C32.99516,88 22.9711281,84.3046287 15,77.5273104 L35.0182923,70.5954831 L34.8823362,69.0246949 C34.8704277,68.8761158 34.8495877,68.7281955 34.8317248,68.5812636 C34.8178315,68.4784771 34.7969915,68.3776673 34.7969915,68.2768575 L34.7969915,58.3260069 L33.5664401,57.7998851 C30.0706157,56.3061869 27.8099737,52.8938078 27.8099737,49.1071805 L27.8099737,23.4580026 C27.8099737,18.8938879 31.0725888,15.0753046 35.3947352,14.1917363 C36.0136496,14.0642415 36.6520808,14 37.3067209,14 L49.8384974,14 C50.4937991,14 51.1315687,14.0642415 51.7511447,14.1917363 C56.073291,15.0772813 59.3352446,18.8938879 59.3352446,23.4580026 L59.3352446,49.10751 C59.3352446,52.8941372 57.0749334,56.3045396 53.5791089,57.8002146 L52.3472344,58.3263364 L52.3472344,68.2771869 C52.3472344,68.4353199 52.3234173,68.5858758 52.3015849,68.739726 L52.0809457,70.7480155 L72,77.6459102 C64.0507042,84.3441619 54.0776146,88 43.5736015,88 Z" id="Path"></path>
            </g>
        </g>
    </g>
</svg>