<?xml version="1.0" encoding="UTF-8"?>
<svg width="106px" height="108px" viewBox="0 0 106 108" version="1.1" xmlns="http://www.w3.org/2000/svg" xmlns:xlink="http://www.w3.org/1999/xlink">
    <!-- Generator: Sketch 63.1 (92452) - https://sketch.com -->
    <title>patient</title>
    <desc>Created with Sketch.</desc>
    <g id="Youngsters-App" stroke="none" stroke-width="1" fill="none" fill-rule="evenodd">
        <g id="1.-Register-Copy-5" transform="translate(-623.000000, -301.000000)" fill-rule="nonzero">
            <g id="patient" transform="translate(623.000000, 301.000000)">
                <polygon id="Path" fill="#76BDF6" points="77.2251367 0 29.7748633 0 29.7748633 42.0570706 17 42.0570706 53.5 64 90 42.0570706 77.2251367 42.0570706"></polygon>
                <path d="M98.6896261,24 L76.7587151,24 L76.7587151,31.3335681 L98.6898367,31.3335681 L98.6898367,79.0001761 L7.31037388,79.0001761 L7.31037388,31.3333568 L29.2414955,31.3333568 L29.2414955,24 L7.31037388,24 C3.27315714,24 0,27.2834476 0,31.3333568 L0,82.6666432 C0,86.7165524 3.27315714,90 7.31037388,90 L98.6896261,90 C102.726843,90 106,86.7165524 106,82.6666432 L106,31.3333568 C106,27.2836588 102.726843,24 98.6896261,24 Z" id="Path" fill="#3689C9"></path>
                <polygon id="Path" fill="#FFDDBA" points="7 78 98 78 98 31 76.1601091 31 76.1601091 41.8461538 88.9001678 41.8461538 52.5 63.5384615 16.1000419 41.8461538 28.8401007 41.8461538 28.8401007 31 7 31"></polygon>
                <g id="Group" transform="translate(0.000000, 90.000000)" fill="#3689C9">
                    <path d="M0.071297619,10.8182069 C0.071297619,16.7683448 4.9735873,18 11.0221071,18 L94.9778929,18 C101.026413,18 105.928702,16.7683448 105.928702,10.8182069 L0.071297619,10.8182069 Z" id="Path"></path>
                    <polygon id="Path" points="34.7486508 10.8182069 71.2513492 10.8182069 65.7759444 0.0455172414 40.2240556 0.0455172414"></polygon>
                </g>
                <path d="M64,18.3333333 L54.8333333,13 C53,18.3333333 42,18.3333333 42,18.3333333 C42,24.224911 49.111508,29 53,29 C56.888492,29 64,24.2247062 64,18.3333333 Z" id="Path" fill="#FFDDBA"></path>
                <path d="M54.8333333,13.4285714 L64,19 C64,12.8454055 62.1666667,6 53,6 C43.8333333,6 42,12.8454055 42,19 C42,19 53,19 54.8333333,13.4285714 Z" id="Path" fill="#854F09"></path>
                <g id="Group" transform="translate(38.000000, 29.000000)" fill="#3689C9">
                    <path d="M0.121027237,14.7234476 L0.121027237,7.45045714 C0.121027237,3.43388571 3.38666148,0.177466667 7.41459922,0.177466667 L22.0017432,0.177466667 C26.0296809,0.177466667 29.2953152,3.43388571 29.2953152,7.45045714 L29.2953152,14.7234476 L0.121027237,14.7234476 L0.121027237,14.7234476 Z" id="Path"></path>
                    <polygon id="Path" points="53.9109105 37.4515429 49.352428 37.4515429 49.352428 32.9059238 47.529035 32.9059238 47.529035 37.4515429 42.9705525 37.4515429 42.9705525 39.2697905 47.529035 39.2697905 47.529035 43.8154095 49.352428 43.8154095 49.352428 39.2697905 53.9109105 39.2697905"></polygon>
                </g>
                <g id="Group" opacity="0.14" transform="translate(39.000000, 90.000000)" fill="#000000">
                    <polygon id="Path" points="26.8855152 0.0488888889 1.11448485 0.0488888889 0.194090909 1.97733333 1.11448485 1.97733333 26.8855152 1.97733333 27.8059091 1.97733333"></polygon>
                </g>
                <g id="Group" opacity="0.14" transform="translate(16.000000, 45.000000)" fill="#000000">
                    <polygon id="Path" points="36.5 19.0355377 6.15968966 0.205915094 0.0925086207 0.205915094 36.5 22.8014623 72.9074914 0.205915094 66.8403103 0.205915094"></polygon>
                </g>
            </g>
        </g>
    </g>
</svg>