<?xml version="1.0" encoding="UTF-8"?>
<svg width="104px" height="93px" viewBox="0 0 104 93" version="1.1" xmlns="http://www.w3.org/2000/svg" xmlns:xlink="http://www.w3.org/1999/xlink">
    <!-- Generator: Sketch 63.1 (92452) - https://sketch.com -->
    <title>question</title>
    <desc>Created with Sketch.</desc>
    <g id="Youngsters-App" stroke="none" stroke-width="1" fill="none" fill-rule="evenodd">
        <g id="1.-Register-Copy-6" transform="translate(-339.000000, -378.000000)" fill-rule="nonzero">
            <g id="question" transform="translate(339.000000, 378.000000)">
                <path d="M29.3425697,0.00686576934 C13.4907799,0.337585168 0.516391955,12.8448866 0.0153956354,28.2884994 C-0.233599965,35.9609384 2.55257494,42.9959948 7.29143345,48.3406378 C9.42571211,50.7475053 10.0348927,54.1013472 8.93695092,57.0968575 L6.96344614,62.481873 C6.32163851,64.233368 8.40311294,65.7304956 9.93143076,64.6165925 L16.9309976,59.5150209 C19.0137599,57.9969749 21.6584796,57.4323882 24.2102552,57.9222963 C26.8674246,58.4324953 29.6497358,58.6010974 32.5112533,58.370577 C47.5662571,57.1564749 59.4392689,45.0229847 59.9801904,30.3104689 C60.6003182,13.4596775 46.5797194,-0.352720978 29.3425697,0.00686576934 Z" id="Path" fill="#FF525D"></path>
                <path d="M96.5371587,75.6985559 C94.0145682,78.7126351 93.214582,82.7859606 94.5426316,86.470938 L95.4852973,89.0856882 C94.2952352,90.4515583 93.0362859,91.7578775 91.7146345,93 L85.8581638,88.6686205 C83.3867587,86.8438704 80.2625257,86.1201788 77.2317061,86.6783104 C75.2772743,87.0402617 73.0888823,87.3601896 71.5,87.3601896 C53.5496827,87.3601896 39,72.9537228 39,55.1800948 C38.9978673,37.4242053 53.5652516,23 71.5,23 C89.4481846,23 104,37.4064667 104,55.1800948 C104,62.9778871 101.196956,70.1292774 96.5371587,75.6985559 Z" id="Path" fill="#FFD15C"></path>
                <g id="Group" transform="translate(18.000000, 9.000000)" fill="#F9EED7">
                    <path d="M57.9853407,63.3783015 C57.9853407,65.7907323 55.8941538,67.9089846 53.4445568,67.9089846 C50.8154359,67.9089846 48.8438608,65.7907323 48.8438608,63.3783015 C48.8438608,60.9066585 50.8156484,58.8474092 53.4445568,58.8474092 C55.8943663,58.8474092 57.9853407,60.9068677 57.9853407,63.3783015 Z M56.8501978,52.1982646 C56.8501978,54.0225477 54.8184982,54.7874954 53.3846447,54.7874954 C51.4725568,54.7874954 49.8596044,54.0225477 49.8596044,52.1982646 C49.8596044,45.1961477 49.0233846,35.13424 49.0233846,28.1317046 C49.0233846,25.8368615 50.9354725,24.5423508 53.3848571,24.5423508 C55.7152674,24.5423508 57.6868425,25.8366523 57.6868425,28.1317046 C57.6864176,35.1340308 56.8501978,45.1959385 56.8501978,52.1982646 Z" id="Shape"></path>
                    <path d="M16.518315,18.9178092 C13.504652,21.2381785 13.4494139,22.8574154 13.4494139,25.6636185 C13.4494139,26.6892677 12.9014945,27.8760246 10.2162857,27.8760246 C7.96979487,27.8760246 7.20262271,27.06672 7.20262271,24.2603077 C7.20262271,19.6191508 9.2850989,17.4065354 10.874044,16.0574154 C12.6824542,14.5463508 15.7511429,12.8733415 15.7511429,9.95917538 C15.7511429,7.47686154 13.5592527,6.28926769 10.8192308,6.28926769 C5.22998535,6.28926769 6.4352381,10.4448 3.47638828,10.4448 C1.99685714,10.4448 0.188446886,9.47355077 0.188446886,7.36848 C0.188446886,4.45452308 3.58601465,0.137046154 10.9838828,0.137046154 C17.9980586,0.137046154 22.6556923,3.96868923 22.6556923,9.04148923 C22.6556923,14.1142892 17.9980586,17.7844062 16.518315,18.9178092 Z M14.4908645,35.7554462 C14.4908645,37.9678523 12.6274286,39.9107692 10.2713114,39.9107692 C7.91519414,39.9107692 6.10657143,37.9678523 6.10657143,35.7554462 C6.10657143,33.4888492 7.97000733,31.5999138 10.2713114,31.5999138 C12.5726154,31.5999138 14.4908645,33.4888492 14.4908645,35.7554462 Z" id="Shape"></path>
                </g>
            </g>
        </g>
    </g>
</svg>